<?xml version="1.0" encoding="UTF-8" standalone="no"?>
<!-- Created with Inkscape (http://www.inkscape.org/) -->

<svg
   xmlns:dc="http://purl.org/dc/elements/1.1/"
   xmlns:cc="http://creativecommons.org/ns#"
   xmlns:rdf="http://www.w3.org/1999/02/22-rdf-syntax-ns#"
   xmlns:svg="http://www.w3.org/2000/svg"
   xmlns="http://www.w3.org/2000/svg"
   xmlns:sodipodi="http://sodipodi.sourceforge.net/DTD/sodipodi-0.dtd"
   xmlns:inkscape="http://www.inkscape.org/namespaces/inkscape"
   version="1.1"
   id="svg29"
   xml:space="preserve"
   width="1000"
   height="200"
   viewBox="0 0 1000 200"
   sodipodi:docname="name.svg"
   inkscape:version="0.92+devel unknown"><metadata
     id="metadata35"><rdf:RDF><cc:Work
         rdf:about=""><dc:format>image/svg+xml</dc:format><dc:type
           rdf:resource="http://purl.org/dc/dcmitype/StillImage" /><dc:title></dc:title></cc:Work></rdf:RDF></metadata><defs
     id="defs33"><clipPath
       clipPathUnits="userSpaceOnUse"
       id="clipPath45"><path
         d="M 0,612 H 792 V 0 H 0 Z"
         id="path43"
         inkscape:connector-curvature="0" /></clipPath><clipPath
       clipPathUnits="userSpaceOnUse"
       id="clipPath61"><path
         d="m 345.144,411.809 -34.421,-166.237 15.144,-16.529 c 18.721,-7.766 39.246,-12.063 60.776,-12.063 v 0 c 87.656,0 158.715,71.059 158.715,158.714 v 0 c 0,13.911 -1.796,27.402 -5.159,40.26 v 0 l -33.746,38.823 C 479.781,440.165 345.144,411.809 345.144,411.809"
         id="path59"
         inkscape:connector-curvature="0" /></clipPath><linearGradient
       x1="0"
       y1="0"
       x2="1"
       y2="0"
       gradientUnits="userSpaceOnUse"
       gradientTransform="matrix(202.64371,-241.50136,-241.50136,-202.64371,352.36865,417.87158)"
       spreadMethod="pad"
       id="linearGradient75"><stop
         style="stop-opacity:1;stop-color:#412b45"
         offset="0"
         id="stop67" /><stop
         style="stop-opacity:1;stop-color:#412b45"
         offset="0.17561"
         id="stop69" /><stop
         style="stop-opacity:1;stop-color:#7a5184"
         offset="0.741463"
         id="stop71" /><stop
         style="stop-opacity:1;stop-color:#7a5184"
         offset="1"
         id="stop73" /></linearGradient><clipPath
       clipPathUnits="userSpaceOnUse"
       id="clipPath85"><path
         d="M 0,612 H 792 V 0 H 0 Z"
         id="path83"
         inkscape:connector-curvature="0" /></clipPath><clipPath
       clipPathUnits="userSpaceOnUse"
       id="clipPath125"><path
         d="m 355.424,432.644 83.719,26.897 -0.514,7.902 -12.242,2.437 -101.475,20.871 z"
         id="path123"
         inkscape:connector-curvature="0" /></clipPath><linearGradient
       x1="0"
       y1="0"
       x2="1"
       y2="0"
       gradientUnits="userSpaceOnUse"
       gradientTransform="matrix(92.577896,-110.33004,-110.33004,-92.577896,347.18555,509.44189)"
       spreadMethod="pad"
       id="linearGradient139"><stop
         style="stop-opacity:1;stop-color:#412b45"
         offset="0"
         id="stop131" /><stop
         style="stop-opacity:1;stop-color:#412b45"
         offset="0.00487809"
         id="stop133" /><stop
         style="stop-opacity:1;stop-color:#7a5184"
         offset="0.863415"
         id="stop135" /><stop
         style="stop-opacity:1;stop-color:#7a5184"
         offset="1"
         id="stop137" /></linearGradient><clipPath
       clipPathUnits="userSpaceOnUse"
       id="clipPath149"><path
         d="M 0,612 H 792 V 0 H 0 Z"
         id="path147"
         inkscape:connector-curvature="0" /></clipPath></defs><sodipodi:namedview
     pagecolor="#ffffff"
     bordercolor="#666666"
     inkscape:document-rotation="0"
     borderopacity="1"
     objecttolerance="10"
     gridtolerance="10"
     guidetolerance="10"
     inkscape:pageopacity="0"
     inkscape:pageshadow="2"
     inkscape:window-width="1920"
     inkscape:window-height="1016"
     id="namedview31"
     showgrid="false"
     inkscape:zoom="0.9754902"
     inkscape:cx="318.36181"
     inkscape:cy="408"
     inkscape:window-x="0"
     inkscape:window-y="0"
     inkscape:window-maximized="1"
     inkscape:current-layer="g37" /><g
     id="g37"
     inkscape:groupmode="layer"
     inkscape:label="Praelatus_logo"
     transform="matrix(1.3333333,0,0,-1.3333333,0,200)"><g
       id="g3704"
       style="fill:#ffffff;fill-opacity:1"><g
         transform="translate(-8.2470558,-83.449633)"
         id="g79"
         style="fill:#ffffff;fill-opacity:1"><g
           clip-path="url(#clipPath85)"
           id="g81"
           style="fill:#ffffff;fill-opacity:1"><g
             transform="translate(103.9395,184.4814)"
             id="g87"
             style="fill:#ffffff;fill-opacity:1"><path
               inkscape:connector-curvature="0"
               id="path89"
               style="fill:#ffffff;fill-opacity:1;fill-rule:nonzero;stroke:none"
               d="m 0,0 h -35.196 v -55.888 h 13.436 v 19.034 1.215 7.177 1.361 19.924 h 16.42 v -21.285 h -11.924 v -7.177 H 0 c 5.473,0 8.21,1.738 8.21,5.212 V -5.141 C 8.21,-1.714 5.473,0 0,0" /></g><g
             transform="translate(185.1006,154.4482)"
             id="g91"
             style="fill:#ffffff;fill-opacity:1"><path
               inkscape:connector-curvature="0"
               id="path93"
               style="fill:#ffffff;fill-opacity:1;fill-rule:nonzero;stroke:none"
               d="m 0,0 c 2.563,0.689 3.848,2.214 3.848,4.572 v 20.321 c 0,3.426 -2.7,5.14 -8.096,5.14 h -35.655 v -55.887 h 13.436 v 48.71 H -9.529 V 5.144 H -22.735 V 0.106 l 14.813,-25.96 H 6.086 L -8.728,-0.536 c 4.441,0 7.351,0.178 8.728,0.536" /></g><g
             transform="translate(237.3809,146.3779)"
             id="g95"
             style="fill:#ffffff;fill-opacity:1"><path
               inkscape:connector-curvature="0"
               id="path97"
               style="fill:#ffffff;fill-opacity:1;fill-rule:nonzero;stroke:none"
               d="M 0,0 6.603,25.212 13.149,0 Z m -0.343,38.175 -17.396,-55.818 v -0.141 h 13.261 l 2.7,10.607 h 16.821 l 2.7,-10.607 h 13.32 L 13.78,38.175 Z" /></g><g
             transform="translate(382.8823,184.4814)"
             id="g99"
             style="fill:#ffffff;fill-opacity:1"><path
               inkscape:connector-curvature="0"
               id="path101"
               style="fill:#ffffff;fill-opacity:1;fill-rule:nonzero;stroke:none"
               d="m 0,0 h -13.435 v -55.888 h 35.309 v 7.464 H 0 Z" /></g><g
             transform="translate(450.7246,146.3779)"
             id="g103"
             style="fill:#ffffff;fill-opacity:1"><path
               inkscape:connector-curvature="0"
               id="path105"
               style="fill:#ffffff;fill-opacity:1;fill-rule:nonzero;stroke:none"
               d="M 0,0 6.602,25.212 13.148,0 Z M -0.344,38.175 -17.74,-17.643 v -0.141 h 13.261 l 2.7,10.607 h 16.822 l 2.699,-10.607 H 31.061 L 13.779,38.175 Z" /></g><g
             transform="translate(508.8613,177.0889)"
             id="g107"
             style="fill:#ffffff;fill-opacity:1"><path
               inkscape:connector-curvature="0"
               id="path109"
               style="fill:#ffffff;fill-opacity:1;fill-rule:nonzero;stroke:none"
               d="m 0,0 h 14.813 v -48.495 h 13.38 V 0 H 43.006 V 7.393 H 0 Z" /></g><g
             transform="translate(613.7363,135.7705)"
             id="g111"
             style="fill:#ffffff;fill-opacity:1"><path
               inkscape:connector-curvature="0"
               id="path113"
               style="fill:#ffffff;fill-opacity:1;fill-rule:nonzero;stroke:none"
               d="M 0,0 H -18.086 V 48.711 H -31.523 V -2.071 c 0,-3.404 2.72,-5.106 8.154,-5.106 H 5.166 c 5.512,0 8.266,1.702 8.266,5.106 V 48.711 H 0 Z" /></g><g
             transform="translate(704.543,166.9111)"
             id="g115"
             style="fill:#ffffff;fill-opacity:1"><path
               inkscape:connector-curvature="0"
               id="path117"
               style="fill:#ffffff;fill-opacity:1;fill-rule:nonzero;stroke:none"
               d="m 0,0 v 12.501 c 0,3.38 -2.721,5.069 -8.154,5.069 h -27.041 c -5.399,0 -8.098,-1.714 -8.098,-5.14 V 0 c 0,-1.809 0.977,-3.297 2.932,-4.463 l 26.925,-15.857 v -10.962 h -16.419 v 11.39 h -13.438 v -13.32 c 0,-3.403 2.699,-5.105 8.098,-5.105 h 27.041 c 5.433,0 8.154,1.702 8.154,5.105 v 13.32 c 0,1.883 -0.977,3.395 -2.93,4.538 L -29.855,0.429 v 10.107 h 16.419 V 0 Z" /></g></g></g><g
         transform="translate(332.08644,107.55037)"
         id="g167"
         style="fill:#ffffff;fill-opacity:1"><path
           inkscape:connector-curvature="0"
           id="path169"
           style="fill:#ffffff;fill-opacity:1;fill-rule:nonzero;stroke:none"
           d="M 0,0 -51.667,-34.463 0,-67.333 v 11.667 L -29.61,-38 h 22.404 v 7.806 H -29.61 L 0,-12 Z" /></g></g></g></svg>